<svg width="28" height="29" viewBox="0 0 28 29" fill="none" xmlns="http://www.w3.org/2000/svg">
<g clip-path="url(#clip0_78_89)">
<path d="M13.3538 27.749C20.4068 27.749 26.1245 22.033 26.1245 14.9821C26.1245 7.93117 20.4068 2.21525 13.3538 2.21525C6.30066 2.21525 0.583008 7.93117 0.583008 14.9821C0.583008 22.033 6.30066 27.749 13.3538 27.749Z" stroke="#007283" stroke-width="2" stroke-miterlimit="10"/>
<path d="M15.8774 11.8761L22.0424 5.71302" stroke="#007283" stroke-width="2" stroke-miterlimit="10"/>
<path d="M10.438 18.1301L4.54834 24.018" stroke="#007283" stroke-width="2" stroke-miterlimit="10"/>
<path d="M13.3094 24.018C13.3094 24.018 13.6593 18.5382 8.64428 19.3543C8.64428 19.3543 8.06114 23.0853 13.3094 24.018Z" fill="#007283"/>
<path d="M13.3094 19.5875C13.3094 19.5875 13.6593 14.1077 8.64428 14.9238C8.64428 14.9238 8.06114 18.6548 13.3094 19.5875Z" fill="#007283"/>
<path d="M13.4261 15.157C13.4261 15.157 13.776 9.67716 8.76098 10.4933C8.76098 10.4933 8.17784 14.2243 13.4261 15.157Z" fill="#007283"/>
<path d="M13.6454 24.018C13.6454 24.018 13.2955 18.5382 18.3105 19.3543C18.3105 19.3543 18.8936 23.0853 13.6454 24.018Z" fill="#007283"/>
<path d="M13.7621 19.5875C13.7621 19.5875 13.4122 14.1077 18.4272 14.9238C18.4272 14.9238 19.0103 18.6548 13.7621 19.5875Z" fill="#007283"/>
<path d="M13.6454 15.157C13.6454 15.157 13.2955 9.67716 18.3105 10.4933C18.3105 10.4933 18.8936 14.2243 13.6454 15.157Z" fill="#007283"/>
<path d="M13.6766 11.8015C13.6766 11.8015 9.55266 8.17428 13.6766 5.20584C13.6766 5.20584 16.7276 7.43159 13.6766 11.8015Z" fill="#007283"/>
</g>
<defs>
<clipPath id="clip0_78_89">
<rect width="28" height="29" fill="white"/>
</clipPath>
</defs>
</svg>
