<svg width="26" height="27" viewBox="0 0 26 27" fill="none" xmlns="http://www.w3.org/2000/svg">
<g clip-path="url(#clip0_78_110)">
<path d="M13.2174 26.1435C19.7667 26.1435 25.076 20.8218 25.076 14.2571C25.076 7.69248 19.7667 2.37076 13.2174 2.37076C6.66814 2.37076 1.35889 7.69248 1.35889 14.2571C1.35889 20.8218 6.66814 26.1435 13.2174 26.1435Z" stroke="#007283" stroke-width="2" stroke-miterlimit="10"/>
<path d="M15.562 11.3653L21.2855 5.6273" stroke="#007283" stroke-width="2" stroke-miterlimit="10"/>
<path d="M10.51 17.188L5.04102 22.6699" stroke="#007283" stroke-width="2" stroke-miterlimit="10"/>
<path d="M14.1995 5.97033H11.8993C11.727 5.97033 11.5874 6.1103 11.5874 6.28296V6.63467C11.5874 6.80733 11.727 6.94729 11.8993 6.94729H14.1995C14.3718 6.94729 14.5114 6.80733 14.5114 6.63467V6.28296C14.5114 6.1103 14.3718 5.97033 14.1995 5.97033Z" fill="#007283"/>
<path d="M14.9783 12.0492H11.554C10.795 12.0492 10.1797 12.6659 10.1797 13.4267V20.9841C10.1797 21.7449 10.795 22.3616 11.554 22.3616H14.9783C15.7373 22.3616 16.3526 21.7449 16.3526 20.9841V13.4267C16.3526 12.6659 15.7373 12.0492 14.9783 12.0492Z" fill="#007283"/>
<path d="M10.1797 13.2433C10.1797 13.2433 10.0714 11.9407 10.6129 11.0722C11.1544 10.2038 11.6959 9.22687 11.6959 7.49005H12.9955V13.2433H10.1797Z" fill="#007283"/>
<path d="M16.3506 13.2433C16.3506 13.2433 16.4838 11.9407 15.8177 11.0722C15.1517 10.2038 14.4857 9.22687 14.4857 7.49005H12.8872V13.2433H16.3506Z" fill="#007283"/>
</g>
<defs>
<clipPath id="clip0_78_110">
<rect width="26" height="27" fill="white"/>
</clipPath>
</defs>
</svg>
