<svg width="25" height="26" viewBox="0 0 25 26" fill="none" xmlns="http://www.w3.org/2000/svg">
<g clip-path="url(#clip0_78_119)">
<path d="M12.3395 24.3557C18.6369 24.3557 23.7419 19.2311 23.7419 12.9096C23.7419 6.58805 18.6369 1.46343 12.3395 1.46343C6.04206 1.46343 0.937012 6.58805 0.937012 12.9096C0.937012 19.2311 6.04206 24.3557 12.3395 24.3557Z" stroke="#007283" stroke-width="2" stroke-miterlimit="10"/>
<path d="M12.3914 13.2754C14.0592 13.2754 15.4112 11.9182 15.4112 10.244C15.4112 8.56984 14.0592 7.21264 12.3914 7.21264C10.7236 7.21264 9.37158 8.56984 9.37158 10.244C9.37158 11.9182 10.7236 13.2754 12.3914 13.2754Z" fill="#007283"/>
<path d="M12.3914 18.8156C14.0592 18.8156 15.4112 17.4584 15.4112 15.7842C15.4112 14.11 14.0592 12.7528 12.3914 12.7528C10.7236 12.7528 9.37158 14.11 9.37158 15.7842C9.37158 17.4584 10.7236 18.8156 12.3914 18.8156Z" fill="#007283"/>
<path d="M9.75375 11.7451C9.75375 11.7451 10.92 13.1124 9.67773 14.4483L12.1842 12.9618L9.75479 11.7451H9.75375Z" fill="#007283"/>
<path d="M15.0227 11.7451C15.0227 11.7451 13.8564 13.1124 15.0987 14.4483L12.5923 12.9618L15.0217 11.7451H15.0227Z" fill="#007283"/>
<path d="M15.0991 9.61685L20.0975 4.59937" stroke="#007283" stroke-width="2" stroke-miterlimit="10"/>
<path d="M9.7362 15.7319L4.47754 21.0107" stroke="#007283" stroke-width="2" stroke-miterlimit="10"/>
<path d="M12.3913 8.04888C12.3913 8.04888 13.3284 8.15341 13.3284 8.36248C13.3284 8.57154 13.3284 8.88513 12.7037 8.67607C12.0789 8.46701 11.9747 8.7806 11.7665 8.7806C11.5582 8.7806 11.0375 8.36248 11.6623 8.15341C12.2871 7.94435 12.3913 8.04888 12.3913 8.04888Z" fill="white"/>
<path d="M13.2453 12.9566C13.2453 12.9566 13.3494 12.0158 13.5577 12.0158C13.7659 12.0158 14.0783 12.0158 13.8701 12.643C13.6618 13.2702 13.9742 13.3747 13.9742 13.5838C13.9742 13.7929 13.5577 14.3155 13.3494 13.6883C13.1411 13.0611 13.2453 12.9566 13.2453 12.9566V12.9566Z" fill="white"/>
<path d="M11.4491 12.9409C11.4491 12.9409 11.345 13.8817 11.1367 13.8817C10.9285 13.8817 10.6161 13.8817 10.8243 13.2545C11.0326 12.6273 10.7202 12.5228 10.7202 12.3137C10.7202 12.1047 11.1367 11.582 11.345 12.2092C11.5533 12.8364 11.4491 12.9409 11.4491 12.9409V12.9409Z" fill="white"/>
<path d="M11.0377 9.30326C11.0377 9.30326 10.5171 8.88514 10.5171 10.3486C10.5171 11.812 11.1419 11.1848 11.1419 11.0803C11.1419 10.9758 11.0377 10.1395 11.1419 9.93044C11.246 9.72138 11.246 9.30326 11.0377 9.30326Z" fill="white"/>
<path d="M11.0377 14.7389C11.0377 14.7389 10.5171 14.3207 10.5171 15.7842C10.5171 17.2476 11.1419 16.6204 11.1419 16.5159C11.1419 16.4114 11.0377 15.5751 11.1419 15.3661C11.246 15.157 11.246 14.7389 11.0377 14.7389Z" fill="white"/>
<path d="M11.3534 17.3135C11.3534 17.3135 10.9369 17.8361 12.3947 17.8361C13.8526 17.8361 13.2278 17.2089 13.1237 17.2089C13.0195 17.2089 12.1865 17.3135 11.9782 17.2089C11.7699 17.1044 11.3534 17.1044 11.3534 17.3135Z" fill="white"/>
<path d="M13.7096 16.6832C13.7096 16.6832 14.2303 17.1013 14.2303 15.6378C14.2303 14.1744 13.6055 14.8016 13.6055 14.9061C13.6055 15.0107 13.7096 15.8469 13.6055 16.056C13.5014 16.265 13.5014 16.6832 13.7096 16.6832Z" fill="white"/>
<path d="M13.7096 11.2475C13.7096 11.2475 14.2303 11.6657 14.2303 10.2022C14.2303 8.73879 13.6055 9.36597 13.6055 9.47051C13.6055 9.57504 13.7096 10.4113 13.6055 10.6203C13.5014 10.8294 13.5014 11.2475 13.7096 11.2475Z" fill="white"/>
<path d="M12.7039 9.51232C12.7039 9.33912 12.564 9.19872 12.3915 9.19872C12.219 9.19872 12.0791 9.33912 12.0791 9.51232V10.8712C12.0791 11.0444 12.219 11.1848 12.3915 11.1848C12.564 11.1848 12.7039 11.0444 12.7039 10.8712V9.51232Z" fill="white"/>
<path d="M12.7039 12.2301C12.7039 12.0569 12.564 11.9165 12.3915 11.9165C12.219 11.9165 12.0791 12.0569 12.0791 12.2301V13.589C12.0791 13.7622 12.219 13.9026 12.3915 13.9026C12.564 13.9026 12.7039 13.7622 12.7039 13.589V12.2301Z" fill="white"/>
<path d="M12.7039 15.0525C12.7039 14.8793 12.564 14.7389 12.3915 14.7389C12.219 14.7389 12.0791 14.8793 12.0791 15.0525V16.4114C12.0791 16.5846 12.219 16.725 12.3915 16.725C12.564 16.725 12.7039 16.5846 12.7039 16.4114V15.0525Z" fill="white"/>
</g>
<defs>
<clipPath id="clip0_78_119">
<rect width="25" height="26" fill="white"/>
</clipPath>
</defs>
</svg>
