<svg width="27" height="28" viewBox="0 0 27 28" fill="none" xmlns="http://www.w3.org/2000/svg">
<path d="M14.3707 17.9147C14.3707 17.9147 15.556 16.0505 16.9101 15.2872C18.2641 14.524 20.0421 11.6433 20.1276 11.3889C20.2131 11.1345 20.7203 9.86353 21.1432 9.69354C21.1432 9.69354 17.9256 9.86353 15.7247 11.8966C13.5238 13.9296 13.778 18.5912 13.778 18.5912C13.778 18.5912 15.0477 13.8452 18.4339 11.5577C18.4339 11.5577 15.3019 14.1852 14.3707 17.9135V17.9147Z" fill="#007283"/>
<path d="M13.2695 21.2197C13.2695 21.2197 14.1163 16.2204 11.7456 13.0842C9.37489 9.94905 5.9043 9.69464 5.9043 9.69464C5.9043 9.69464 9.29054 11.05 11.3227 14.694C13.3549 18.3379 13.2695 21.2186 13.2695 21.2186V21.2197Z" fill="#007283"/>
<path d="M13.552 26.3418C20.3531 26.3418 25.8666 20.823 25.8666 14.0152C25.8666 7.20741 20.3531 1.6886 13.552 1.6886C6.75076 1.6886 1.2373 7.20741 1.2373 14.0152C1.2373 20.823 6.75076 26.3418 13.552 26.3418Z" stroke="#007283" stroke-width="2" stroke-miterlimit="10"/>
</svg>
